<svg width="150" height="150" viewBox="0 0 150 150" fill="none" xmlns="http://www.w3.org/2000/svg">
<g clip-path="url(#clip0_14_2850)">
<path d="M123.6 0H26.4C11.8197 0 0 11.8197 0 26.4V123.6C0 138.18 11.8197 150 26.4 150H123.6C138.18 150 150 138.18 150 123.6V26.4C150 11.8197 138.18 0 123.6 0Z" fill="#00A980"/>
<path d="M120.778 63.4093C117.557 59.9061 113.287 56.3284 109.167 52.6762C111.34 54.7632 112.089 57.9682 111.939 60.9496C111.789 63.931 110.74 66.8379 109.692 69.5957C111.564 71.1609 113.512 73.0988 113.587 75.4839C113.587 77.869 111.864 79.807 110.141 81.4467C100.628 90.9127 91.1152 100.379 81.6023 109.845C79.8794 111.559 77.7821 113.422 75.3102 113.124C73.5125 112.9 72.0144 111.559 70.741 110.292C65.7223 105.298 60.7036 100.304 55.685 95.3102L38.7564 78.4653C37.7077 77.3473 36.7339 76.1547 36.3594 74.8131C36.1347 73.6951 36.2096 72.5025 36.659 71.459C37.1834 70.341 38.1571 69.3721 39.056 68.4776C41.9024 65.6453 44.8237 62.7384 47.6701 59.9061L69.0181 38.6636C69.9919 37.6947 71.1155 36.8003 72.314 36.3531C72.5387 36.3531 72.7634 36.204 73.063 36.204C73.5874 36.204 74.1117 36.204 74.6361 36.204C75.0855 36.204 75.5349 36.4276 75.9844 36.5767C76.8832 37.0239 77.7072 37.6947 78.4562 38.44L92.6134 52.5271C93.662 53.5706 94.6358 54.5396 95.6845 55.5831C96.7332 56.6266 97.3324 58.0427 97.3324 59.5334C97.3324 61.0241 96.7332 62.4403 95.6845 63.4838L79.7296 79.3597L88.2688 87.8567L104.224 71.9808C104.224 71.9808 104.823 71.31 105.123 71.0118C105.123 71.0118 105.197 70.9373 105.272 70.8628C105.572 70.4901 105.797 70.1919 106.096 69.8193C106.096 69.8193 106.096 69.8193 106.096 69.7447C106.621 68.9994 107.145 68.1795 107.52 67.3596C107.52 67.3596 107.819 66.8379 107.894 66.5397C107.969 66.3161 108.119 66.018 108.194 65.7944C108.194 65.7944 108.194 65.7198 108.194 65.6453C108.868 63.7074 109.242 61.695 109.242 59.608C109.242 54.9868 107.445 50.5892 104.224 47.3097C102.875 45.7445 101.302 44.2538 99.7294 42.7631L89.9917 33.0735C88.8681 31.8064 87.6696 30.6139 86.3962 29.4958L86.2464 29.3468C84.8981 28.0051 83.4 26.9617 81.827 26.1418C81.7521 26.1418 81.6772 26.0672 81.5274 25.9927C81.3775 25.9927 81.3026 25.8436 81.1528 25.8436C79.3551 24.9492 77.4076 24.2784 75.3851 24.0548C73.5125 23.9057 71.7147 24.0548 69.917 24.5765C69.6174 24.5765 69.3178 24.7256 69.0181 24.8001H68.8683C68.1942 25.0237 67.52 25.2473 66.8459 25.471C66.771 25.471 66.6961 25.471 66.6212 25.5455C66.3965 25.62 66.0968 25.7691 65.8721 25.9182C65.7972 25.9182 65.7223 25.9927 65.5725 26.0672C63.9995 26.8871 62.5014 27.9306 61.1531 29.2722L60.6287 29.794C58.7561 31.3592 57.0333 33.1481 55.3105 34.8624C50.7412 39.4835 46.172 44.1047 41.5279 48.8004L29.1685 61.0987C28.719 61.5459 28.3445 61.9931 27.97 62.4403C27.8951 62.5894 27.7453 62.6639 27.6704 62.813C27.6704 62.8875 27.5206 62.962 27.4456 63.0366C26.6966 63.7819 26.2472 64.9 25.7228 65.7944C25.1236 66.9124 24.6741 68.105 24.3745 69.3721C24.1498 70.4155 24.0749 71.5336 24 72.5771C24 72.8752 24 73.2479 24 73.546C24 73.9932 24 74.515 24 74.9622C24 74.9622 24 75.1112 24 75.1858C24 75.633 24.0749 76.0802 24.1498 76.5274C24.1498 76.602 24.1498 76.6765 24.1498 76.751C24.2247 77.1982 24.2996 77.6454 24.4494 78.0181C24.4494 78.0181 24.4494 78.0926 24.4494 78.1672C24.5992 78.6144 24.6741 79.0616 24.824 79.5088C24.9738 79.956 25.1236 80.4032 25.3483 80.7759C25.3483 80.7759 25.3483 80.8504 25.3483 80.925C25.573 81.2977 25.7228 81.7449 25.9475 82.1175C25.9475 82.1175 25.9475 82.1921 26.0224 82.2666C26.2472 82.6393 26.4719 83.0865 26.7715 83.4592C27.0711 83.8318 27.3707 84.2791 27.6704 84.6517C28.0449 85.0989 28.4943 85.5461 28.8689 85.9934L29.4681 86.5896C31.4156 88.9748 33.6628 91.1363 35.8351 93.2978C40.1796 97.5463 44.4492 101.72 48.7937 105.969C52.3142 109.397 55.8348 112.9 59.4303 116.329C62.5014 119.31 65.7223 122.441 69.6923 123.932C72.8383 125.124 76.3589 125.348 79.5798 124.453C84.8232 123.037 88.943 119.087 92.7632 115.286C99.9541 108.13 107.22 101.049 114.411 93.8941C118.98 89.3474 123.849 84.3536 124.823 77.9436C125.572 72.7261 123.924 67.0615 120.328 63.1857L120.778 63.4093ZM72.2391 36.4276C72.4638 36.4276 72.6136 36.3531 72.8383 36.2785C72.6136 36.2785 72.3889 36.3531 72.2391 36.4276ZM73.8121 36.204C73.8121 36.204 73.2878 36.204 73.063 36.204C73.2878 36.204 73.5125 36.204 73.8121 36.204C74.1117 36.204 74.3364 36.204 74.5612 36.204C74.3364 36.204 74.0368 36.204 73.8121 36.204ZM75.3851 36.4276C75.3851 36.4276 75.6847 36.5021 75.8345 36.5767C75.8345 36.5767 75.9094 36.5767 75.9844 36.5767C75.8345 36.5021 75.6098 36.4276 75.46 36.3531L75.3851 36.4276ZM74.711 36.2785C74.711 36.2785 75.1604 36.3531 75.3851 36.4276C75.1604 36.4276 74.9357 36.2785 74.711 36.2785ZM81.9019 26.1418C81.9019 26.1418 81.7521 26.0672 81.6023 25.9927C81.6772 25.9927 81.7521 26.0672 81.9019 26.1418ZM66.9208 25.5455C66.9208 25.5455 66.771 25.5455 66.6961 25.62C66.771 25.62 66.8459 25.62 66.9208 25.5455ZM65.947 25.9927C65.947 25.9927 65.7972 26.0672 65.6474 26.1418C65.7223 26.1418 65.7972 26.0672 65.947 25.9927Z" fill="white"/>
</g>
<defs>
<clipPath id="clip0_14_2850">
<rect width="150" height="150" fill="white"/>
</clipPath>
</defs>
</svg>
